<?xml version="1.0" encoding="UTF-8" standalone="no"?>
<svg
   width="440"
   height="440"
   viewBox="0 0 440 440"
   version="1.1"
   id="svg30"
   sodipodi:docname="nfteye-logo.svg"
   inkscape:version="1.1.1 (3bf5ae0d25, 2021-09-20)"
   xmlns:inkscape="http://www.inkscape.org/namespaces/inkscape"
   xmlns:sodipodi="http://sodipodi.sourceforge.net/DTD/sodipodi-0.dtd"
   xmlns="http://www.w3.org/2000/svg"
   xmlns:svg="http://www.w3.org/2000/svg"
   xmlns:rdf="http://www.w3.org/1999/02/22-rdf-syntax-ns#"
   xmlns:cc="http://creativecommons.org/ns#"
   xmlns:dc="http://purl.org/dc/elements/1.1/">
  <defs
     id="defs34" />
  <sodipodi:namedview
     id="namedview32"
     pagecolor="#ffffff"
     bordercolor="#666666"
     borderopacity="1.0"
     inkscape:pageshadow="2"
     inkscape:pageopacity="0.0"
     inkscape:pagecheckerboard="true"
     showgrid="false"
     inkscape:zoom="0.49952786"
     inkscape:cx="1057.9991"
     inkscape:cy="267.25236"
     inkscape:window-width="2560"
     inkscape:window-height="1377"
     inkscape:window-x="-8"
     inkscape:window-y="32"
     inkscape:window-maximized="1"
     inkscape:current-layer="最终方案备份" />
  <title
     id="title2">logo_white</title>
  <g
     id="g28"
     stroke="none"
     stroke-width="1"
     fill="none"
     fill-rule="evenodd">
    <g
       id="最终方案备份"
       transform="translate(-320,-491)">
      <path
         id="Rectangle备份"
         style="fill-rule:nonzero"
         d="M 0,0 H 3001 V 1632 H 0 Z" />
      <g
         id="编组"
         transform="translate(283.67721,454.68)">
        <g
           id="logo"
           transform="translate(36.322785,36.32)">
          <path
             d="m 112.28722,231.22721 c 5.42908,50.51176 45.32824,90.41092 95.83999,95.84 2.03178,0.23 3.56298,1.9553 3.55009,4 v 104.28 c 0,1.10379 -0.45231,2.15934 -1.2552,2.91679 -0.80289,0.75744 -1.88308,1.14944 -2.98489,1.08321 -111.759995,-6.13999 -201.2899954,-95.67 -207.42999543,-207.43 -0.06622921,-1.1018 0.32577509,-2.18199 1.08321853,-2.98488 0.7574434,-0.80289 1.812993,-1.25512 2.9167815,-1.25512 H 108.31722 c 2.03325,0.002 3.74125,1.52965 3.97,3.55 z"
             id="路径-7"
             fill="#e60099" />
          <path
             d="m 331.03721,227.67721 h 104.31 c 1.10379,0 2.15934,0.45223 2.91679,1.25512 0.75744,0.80289 1.14944,1.88308 1.08321,2.98488 -6.13999,111.76 -95.67,201.29001 -207.43,207.43 -1.1018,0.0662 -2.18199,-0.32577 -2.98488,-1.08321 -0.80289,-0.75745 -1.2552,-1.813 -1.2552,-2.91679 v -104.31 c -0.0129,-2.0447 1.51831,-3.77 3.55008,-4 50.51176,-5.42908 90.41092,-45.32824 95.84,-95.84 0.24277,-2.00845 1.94693,-3.52 3.97,-3.52 z"
             id="路径-8"
             fill="#4931f3" />
          <path
             d="M 211.6773,4.0072146 V 108.31722 c 0.0129,2.0447 -1.51831,3.77 -3.55009,4 -50.51175,5.42908 -90.41091,45.32824 -95.83999,95.83999 -0.23,2.03178 -1.9553,3.56298 -4,3.55009 H 4.0072146 c -1.1037885,0 -2.1593381,-0.45231 -2.9167815,-1.2552 -0.75744344,-0.80289 -1.14944774,-1.88308 -1.08321853,-2.98489 C 6.1472146,95.677215 95.677215,6.1472146 207.43721,0.00721457 c 1.10181,-0.06622921 2.182,0.32577509 2.98489,1.08321853 0.80289,0.7574434 1.2552,1.812993 1.2552,2.9167815 z"
             id="路径-10"
             fill="#0cd2d2" />
          <path
             id="椭圆形-4"
             style="fill:#e60099"
             d="m 263.67722,219.67999 a 44,44 0 0 1 -44,44 44,44 0 0 1 -44,-44 44,44 0 0 1 44,-44 44,44 0 0 1 44,44 z" />
          <path
             d="m 251.67721,99.770177 c -9.7254,0.02373 -18.50382,-5.823948 -22.22881,-14.807744 -3.72498,-8.983796 -1.66007,-19.32749 5.22881,-26.192433 l 35.71001,-35.72 c 6.06458,-6.073515 14.90867,-8.450258 23.20078,-6.234932 8.29211,2.215326 14.77247,8.686159 17,16.975 2.22752,8.288841 -0.1362,17.136417 -6.20078,23.209932 l -35.71001,35.77 c -4.50791,4.504802 -10.62709,7.024468 -17,7.000177 z"
             id="路径"
             fill="#4931f3" />
          <path
             d="m 307.67721,155.77018 c -9.7254,0.0237 -18.50382,-5.82395 -22.22881,-14.80775 -3.72498,-8.98379 -1.66007,-19.32749 5.22881,-26.19243 l 76,-76 c 9.36675,-9.388841 24.57116,-9.406749 33.96001,-0.04 9.38883,9.366749 9.40674,24.571159 0.04,33.96 l -76,76.08 c -4.50791,4.5048 -10.62709,7.02447 -17,7.00018 z"
             id="path10"
             fill="#e60099" />
          <path
             d="m 363.67721,211.77018 c -9.7254,0.0237 -18.50382,-5.82395 -22.22881,-14.80775 -3.72498,-8.98379 -1.66007,-19.32749 5.22881,-26.19243 l 48,-48 c 9.38884,-9.38884 24.61116,-9.38884 34,0 9.38884,9.38884 9.38884,24.61116 0,34 l -48,48 c -4.50791,4.5048 -10.62709,7.02447 -17,7.00018 z"
             id="path12"
             fill="#0cd2d2" />
        </g>
      </g>
    </g>
  </g>
  <metadata
     id="metadata851">
    <rdf:RDF>
      <cc:Work
         rdf:about="">
        <dc:title>logo_white</dc:title>
      </cc:Work>
    </rdf:RDF>
  </metadata>
</svg>
